
        <svg xmlns="http://www.w3.org/2000/svg" xmlns:xlink="http://www.w3.org/1999/xlink" version="1.1" width="3171.4285714285716" height="476.32206600879135" viewBox="0 0 3171.4285714285716 476.32206600879135">
			
			<g transform="scale(8.571428571428573) translate(10, 10)">
				<defs id="SvgjsDefs3437"><linearGradient id="SvgjsLinearGradient3440"><stop id="SvgjsStop3441" stop-color="#fbb040" offset="0"/><stop id="SvgjsStop3442" stop-color="#f9ed32" offset="1"/></linearGradient></defs><g id="SvgjsG3438" featureKey="nameFeature-0" transform="matrix(1.2703270830836533,0,0,1.2703270830836533,-3.6580339295061948,-15.243697239081076)" fill="#fff"><path d="M2.88 12 l13.999 0 l0 4.681 l-9.3201 0 l0 23.319 l-4.6793 0 l0 -28 z M37.28 12 l4.6792 0.000039062 l0 28 l-4.6793 0 l0 -11.659 l-14 0 l0 11.659 l-4.64 0 l0 -11.659 l4.64 -4.68 l14 0 l0 -11.66 z M71.604 16.116 c2.7702 2.744 4.1556 6.0396 4.1564 9.8848 c0 3.9004 -1.3855 7.196 -4.1556 9.8848 c-2.7177 2.744 -6.0116 4.1156 -9.8848 4.1156 s-7.1688 -1.3724 -9.8848 -4.1156 c-2.744 -2.7168 -4.1156 -6.0116 -4.1156 -9.8848 c0 -3.8462 1.3715 -7.1408 4.1156 -9.8848 c2.6897 -2.744 5.9844 -4.1156 9.8848 -4.1156 c3.8724 0 7.1672 1.3724 9.884 4.1156 z M68.296 32.6168 c1.8287 -1.8558 2.7431 -4.0604 2.7431 -6.6164 c0 -2.5542 -0.91432 -4.7456 -2.743 -6.5752 s-4.0212 -2.7439 -6.576 -2.7439 s-4.7608 0.91432 -6.6164 2.7439 c-1.8025 1.8287 -2.7038 4.02 -2.7038 6.5752 s0.90124 4.7608 2.7038 6.6164 c1.8558 1.8025 4.0604 2.7038 6.6164 2.7038 c2.5542 0 4.7468 -0.90124 6.576 -2.7038 z M95.60000000000001 26 l13.999 -14 l0 28 l-4.6391 0 l0 -16.743 l-9.3604 9.3604 l-14.04 -14.102 l0 -6.515 z M127.36 12 l9.34 18.681 l-5.2256 -0.00085936 l-4.1144 -8.2308 l-4.1024 8.2308 l-4.6932 9.32 l-5.2046 0 z M139.04 35.3616 l2.3191 4.6392 l-5.2046 0 l-2.3191 -4.6392 l5.2046 0 z M160.02 26.082 c1.6128 1.5866 2.4196 3.5098 2.4205 5.7684 c0 2.2334 -0.80684 4.1556 -2.4205 5.77 c-1.5883 1.5875 -3.5106 2.3803 -5.77 2.3803 l0 -4.6802 c0.4834 0 0.94144 -0.087424 1.3715 -0.26312 c0.43008 -0.17394 0.80684 -0.41608 1.1294 -0.72556 c0.32344 -0.30945 0.57084 -0.68008 0.74652 -1.1102 c0.17394 -0.43008 0.26223 -0.88728 0.26223 -1.3715 c0 -0.9406 -0.34965 -1.7606 -1.049 -2.4608 c-0.67224 -0.69928 -1.4922 -1.049 -2.4608 -1.049 l-6.9792 0 c-2.2596 0 -4.1836 -0.79372 -5.7692 -2.3803 c-1.5883 -1.5866 -2.3812 -3.5228 -2.3812 -5.8096 c0 -2.2326 0.79372 -4.1416 2.3812 -5.7292 c1.5604 -1.6137 3.4835 -2.4214 5.7692 -2.4214 l0 4.681 c-0.4834 0 -0.94144 0.086524 -1.3715 0.26223 s-0.80684 0.42396 -1.1294 0.74652 c-0.32254 0.32254 -0.57168 0.70016 -0.74652 1.1302 s-0.26226 0.87416 -0.26226 1.3304 c0 0.96856 0.33566 1.8025 1.0088 2.5018 c0.67132 0.69928 1.5053 1.0481 2.5009 1.0481 l6.9792 0 c2.2596 0 4.1828 0.7946 5.7704 2.3812 z M205.16 20.15 c0 2.2868 -0.82084 4.236 -2.4608 5.8488 c1.6399 1.5866 2.4607 3.5368 2.4607 5.8496 c0 1.1032 -0.21504 2.1522 -0.64512 3.1469 c-0.43092 0.99568 -1.0158 1.8628 -1.7553 2.6024 c-0.7404 0.7404 -1.6075 1.3252 -2.6023 1.7553 c-0.99568 0.43092 -2.0446 0.64596 -3.147 0.64596 l-10.53 0 l0 -4.6802 l10.53 0 c0.4572 0 0.90124 -0.086524 1.3313 -0.26223 c0.43008 -0.17484 0.80684 -0.424 1.1294 -0.74656 s0.57172 -0.69932 0.74656 -1.1294 s0.26226 -0.87328 0.26226 -1.3313 c0 -0.4572 -0.087424 -0.90124 -0.26226 -1.3313 c-0.1757 -0.43008 -0.41784 -0.80684 -0.7264 -1.1294 c-0.30945 -0.32254 -0.6792 -0.57776 -1.1093 -0.7666 c-0.43008 -0.18793 -0.88728 -0.28234 -1.3715 -0.28234 l-15.17 0 l0 -4.64 l15.17 0 c0.4572 0 0.90124 -0.093516 1.3313 -0.28234 c0.43008 -0.18793 0.80684 -0.44408 1.1294 -0.76664 c0.32254 -0.32254 0.57168 -0.69928 0.74652 -1.1294 s0.26226 -0.88728 0.26226 -1.3715 c0 -0.4572 -0.087424 -0.90124 -0.26226 -1.3313 c-0.1757 -0.43008 -0.42396 -0.80684 -0.74652 -1.1294 c-0.32258 -0.32254 -0.69932 -0.5708 -1.1294 -0.74648 c-0.43008 -0.17484 -0.87416 -0.26226 -1.3313 -0.26226 l-10.53 0 l-4.64 -4.68 l15.17 0 c1.0752 0 2.118 0.2159 3.1268 0.64512 c1.0088 0.43092 1.882 1.0158 2.6224 1.7553 c0.73952 0.7404 1.3243 1.6075 1.7553 2.6023 c0.4292 0.99568 0.64512 2.0446 0.64512 3.147 z M210.92000000000002 39.61504 l4.64 -4.2948 l14 0 l0 4.6802 l-18.64 0 l0 -0.38551 z M210.92000000000002 12 l18.64 0 l0 4.6802 l-14 0 z M229.56000000000003 28.34 l-18.64 0 l0 -4.64 l18.64 0 l0 4.64 z M239.99920000000003 35.3204 l14 0 l0 4.6802 l-18.639 0 z M239.99920000000003 12 l0 16.983 l-4.6392 4.6792 l0 -21.662 l4.6391 0 z M264.3992 35.3204 l14 0 l0 4.6802 l-18.639 0 z M264.3992 12 l0 16.983 l-4.6392 4.6792 l0 -21.662 l4.6391 0 z"/></g>
			</g>
		</svg>
	